<svg width="15" height="15" viewBox="0 0 15 15" fill="none" xmlns="http://www.w3.org/2000/svg">
<path id="close-icon-dark" fill-rule="evenodd" clip-rule="evenodd" d="M8.82125 7.49562L14.7163 1.60062C15.0825 1.23468 15.0825 0.64093 14.7163 0.274993C14.35 -0.0912573 13.7569 -0.0912573 13.3906 0.274993L7.49563 6.16999L1.60031 0.274993C1.23406 -0.0912573 0.640938 -0.0912573 0.274687 0.274993C-0.0915625 0.64093 -0.0915625 1.23468 0.274687 1.60062L6.17 7.49562L0.274687 13.3906C-0.0915625 13.7566 -0.0915625 14.3503 0.274687 14.7162C0.457813 14.8991 0.697812 14.9906 0.9375 14.9906C1.17719 14.9906 1.41719 14.8991 1.60031 14.7159L7.49563 8.82093L13.3906 14.7159C13.5738 14.8991 13.8137 14.9906 14.0534 14.9906C14.2931 14.9906 14.5331 14.8991 14.7163 14.7159C15.0825 14.35 15.0825 13.7562 14.7163 13.3903L8.82125 7.49562Z" fill="#7D7A9E"/>
</svg>
