<svg width="29" height="21" viewBox="0 0 29 21" fill="none" xmlns="http://www.w3.org/2000/svg">
<path d="M11.6286 0.874637C12.1483 1.38414 12.1483 2.22993 11.6388 2.74962L5.45334 8.95542H26.7673C27.4908 8.95542 28.0819 9.54645 28.0819 10.2801C28.0819 11.0138 27.4908 11.6049 26.7673 11.6049H5.45334L11.6489 17.8107C12.1585 18.3304 12.1483 19.1659 11.6388 19.6856C11.1191 20.1952 10.2937 20.1952 9.77396 19.6755L1.37728 11.2176C1.26519 11.0954 1.17348 10.9629 1.10215 10.7998C1.03082 10.6368 1.00024 10.4636 1.00024 10.2903C1.00024 9.94387 1.13272 9.61779 1.37728 9.36303L9.77396 0.905212C10.2733 0.37532 11.1089 0.365131 11.6286 0.874637Z" fill="white" stroke="white" stroke-width="0.5"/>
</svg>
