<svg width="23" height="30" viewBox="0 0 23 30" fill="none" xmlns="http://www.w3.org/2000/svg">
<path d="M0.00014953 12.9468C0.00014953 8.99355 -0.000399786 5.04049 0.000607294 1.08736C0.000790399 0.214562 0.213116 0.000511441 1.07634 0.000450406C7.97534 -9.89104e-05 14.8743 -0.000220981 21.7732 0.000511441C22.6261 0.000633512 22.8535 0.229698 22.8536 1.08926C22.8543 9.01077 22.8543 16.9324 22.8536 24.854C22.8535 25.6759 22.5789 25.9558 21.7581 25.958C20.125 25.962 18.4918 25.9488 16.8587 25.9661C16.4382 25.9705 16.2965 25.8234 16.3057 25.4068C16.3318 24.2237 16.2124 24.3813 17.3357 24.3742C18.4803 24.367 19.6252 24.361 20.7696 24.3788C21.1464 24.3847 21.2761 24.2573 21.2756 23.878C21.2677 16.6128 21.2679 9.3475 21.275 2.0823C21.2754 1.70492 21.1402 1.5751 20.7662 1.57558C14.5389 1.58273 8.31152 1.58529 2.08419 1.57235C1.55961 1.57125 1.58169 1.86642 1.58188 2.22347C1.5847 9.15286 1.58389 16.0823 1.58398 23.0117C1.58398 23.317 1.59771 23.6229 1.58123 23.9273C1.56282 24.2682 1.71167 24.3799 2.04243 24.3769C3.32443 24.3653 4.60664 24.3716 5.88873 24.3731C6.53312 24.3738 6.54193 24.3798 6.54081 24.9987C6.53898 26.0478 6.63589 25.9572 5.5795 25.9588C4.08369 25.961 2.58789 25.9623 1.0921 25.958C0.272382 25.9556 0.000698847 25.6767 0.000515741 24.852C-0.000308233 20.8836 0.00014953 16.9152 0.00014953 12.9468Z" fill="white"/>
<path d="M11.4288 12.9829C9.03272 12.9829 6.63659 12.9837 4.24047 12.9823C3.42818 12.9819 3.20331 12.7916 3.20295 12.1039C3.20156 9.35745 3.20156 6.61087 3.20295 3.86429C3.20331 3.14407 3.44211 2.94351 4.30002 2.94333C9.04645 2.94241 13.793 2.94241 18.5395 2.94321C19.4126 2.94339 19.6514 3.14804 19.6516 3.89536C19.6528 6.61594 19.6529 9.3364 19.6515 12.0569C19.6512 12.7977 19.4348 12.9821 18.5715 12.9826C16.1906 12.9835 13.8098 12.9829 11.4288 12.9829ZM11.4235 11.6784C13.4674 11.6784 15.5114 11.6707 17.5551 11.6849C17.9603 11.6877 18.0805 11.5688 18.0785 11.233C18.0655 9.07346 18.0642 6.91391 18.0793 4.75449C18.0818 4.38968 17.9261 4.29025 17.5168 4.29117C13.4596 4.301 9.40232 4.30209 5.34507 4.29013C4.89788 4.28885 4.7723 4.4202 4.77495 4.78714C4.79033 6.92056 4.79363 9.05417 4.77257 11.1875C4.76853 11.5946 4.93534 11.6902 5.38344 11.6862C7.39658 11.6686 9.4101 11.6785 11.4235 11.6784Z" fill="white"/>
<path d="M15.4268 23.7556C15.4269 25.4637 15.4286 27.1719 15.4262 28.88C15.425 29.7277 15.1524 29.9975 14.2974 29.9985C12.3758 30.0004 10.4541 30.0007 8.5325 29.9982C7.70638 29.9971 7.42874 29.7227 7.42828 28.9031C7.42626 25.4412 7.42618 21.9791 7.42847 18.5171C7.42892 17.7515 7.68219 17.4974 8.44072 17.4964C10.4386 17.4938 12.4365 17.4935 14.4344 17.4967C15.1625 17.4978 15.4235 17.7593 15.4254 18.494C15.4296 20.2478 15.4267 22.0017 15.4268 23.7556ZM13.839 23.7337C13.839 22.3155 13.8312 20.8973 13.8448 19.4794C13.848 19.1601 13.7502 19.0627 13.4267 19.0671C12.1003 19.0848 10.7734 19.087 9.44711 19.0662C9.09776 19.0607 9.00735 19.1685 9.00881 19.5056C9.02026 22.3112 9.021 25.117 9.009 27.9226C9.00725 28.3091 9.14987 28.4226 9.51892 28.418C10.7844 28.4025 12.0503 28.4002 13.3157 28.4193C13.7106 28.4251 13.8521 28.3013 13.8464 27.8964C13.8268 26.509 13.8389 25.1213 13.839 23.7337Z" fill="white"/>
<path d="M11.4278 15.3088C13.1063 15.3088 14.7849 15.3064 16.4635 15.3098C17.2678 15.3115 17.5353 15.5812 17.5374 16.3799C17.5396 17.2039 17.5252 18.0282 17.5432 18.8517C17.5512 19.2213 17.4272 19.3744 17.0444 19.3688C15.79 19.3501 15.9656 19.4722 15.9518 18.3049C15.9482 17.9998 15.9331 17.6932 15.9554 17.3898C15.9837 17.0067 15.8241 16.8866 15.4502 16.8904C13.9548 16.9055 12.4593 16.8964 10.9639 16.8964C9.78883 16.8964 8.61353 16.9127 7.43905 16.8881C7.00762 16.8789 6.87481 17.0364 6.89698 17.4467C6.92326 17.9335 6.89222 18.4232 6.90559 18.9111C6.91483 19.2483 6.76774 19.3698 6.43963 19.3668C5.11805 19.355 5.33358 19.4689 5.318 18.2914C5.30912 17.6201 5.31242 16.9485 5.31791 16.2772C5.32359 15.5889 5.60105 15.3123 6.30058 15.3104C8.00962 15.3058 9.71875 15.3088 11.4278 15.3088Z" fill="white"/>
<path d="M11.3927 25.9748C10.1667 25.9654 9.15318 24.9338 9.16938 23.7117C9.18569 22.4823 10.2165 21.4639 11.4358 21.4727C12.6769 21.4817 13.7056 22.5367 13.6843 23.7784C13.6633 24.9943 12.6304 25.9842 11.3927 25.9748ZM12.0917 23.732C12.0898 23.3589 11.7931 23.0569 11.4278 23.0563C11.0617 23.0555 10.7651 23.3553 10.762 23.7291C10.7588 24.1168 11.0303 24.3865 11.4246 24.3873C11.8171 24.388 12.0935 24.1166 12.0917 23.732Z" fill="white"/>
</svg>
