<svg width="26" height="31" viewBox="0 0 26 31" fill="none" xmlns="http://www.w3.org/2000/svg">
<path d="M12.7445 11.2991C8.8679 11.2991 4.99123 11.2992 1.11454 11.2988C1.00573 11.2988 0.895301 11.3097 0.791968 11.2586C0.596823 11.1621 0.504721 10.9971 0.503531 10.7887C0.499137 9.99334 0.500785 9.19805 0.502631 8.40277C0.503211 8.17187 0.6211 8.01574 0.818503 7.90039C2.22288 7.07977 3.6245 6.25451 5.02787 5.43225C7.22959 4.14184 9.43198 2.85278 11.6339 1.56298C11.8999 1.40722 12.1662 1.25201 12.4302 1.09332C12.6435 0.965144 12.8471 0.97082 13.0618 1.09918C14.9196 2.20886 16.7794 3.3153 18.6386 4.42254C20.6559 5.62396 22.6729 6.82586 24.6914 8.02514C24.8642 8.12792 24.9627 8.26782 24.9744 8.46844C24.9996 8.901 24.9837 9.33404 24.9843 9.76672C24.9848 10.1149 25.0018 10.4634 24.9727 10.8113C24.9456 11.1351 24.7642 11.2989 24.4342 11.2989C21.7669 11.2993 19.0995 11.2991 16.4321 11.2991C15.2029 11.2991 13.9738 11.2991 12.7445 11.2991ZM1.38988 8.40277C1.6569 8.6228 1.49088 8.87084 1.49206 8.9923C1.49593 9.39538 1.49586 9.79858 1.4936 10.2017C1.49311 10.2937 1.53176 10.3278 1.6193 10.3222C1.66883 10.3188 1.71876 10.3217 1.76855 10.3217C7.14886 10.322 12.5291 10.3223 17.9094 10.3225C19.8754 10.3225 21.8414 10.3207 23.8073 10.3245C23.9494 10.3248 23.9997 10.2847 23.9952 10.1391C23.9857 9.82574 23.9924 9.51202 23.9923 9.19842L23.4356 8.74975L22.431 7.992C22.5005 7.992 22.57 7.992 22.6394 7.992C21.8895 7.51178 21.1377 7.06414 20.3857 6.61694C19.0983 5.85168 17.8103 5.08758 16.5235 4.32135C15.3096 3.59863 14.0966 2.87451 12.8843 2.14898C12.7929 2.09436 12.7191 2.07055 12.6133 2.13305C11.2812 2.91937 9.94602 3.70056 8.61166 4.48333C7.09252 5.37432 5.57352 6.26562 4.05419 7.15649L1.38988 8.40277Z" fill="white" stroke="white" stroke-width="0.6"/>
<path d="M4.11286 30.5682C3.08266 30.5682 2.05248 30.5689 1.02225 30.5678C0.736269 30.5674 0.541048 30.4213 0.518603 30.1445C0.482973 29.7045 0.463076 29.2589 0.545946 28.823C0.648699 28.2822 1.144 27.8802 1.6921 27.858C1.94806 27.8477 2.04798 27.7341 2.02809 27.4762C2.02577 27.4465 2.02277 27.4167 2.02277 27.3869C2.0232 24.779 2.02423 22.1712 2.02446 19.5634C2.02449 18.6384 2.02347 17.7134 2.02077 16.7883C2.02019 16.5942 1.91899 16.4769 1.73895 16.4728C1.0667 16.4574 0.55118 15.963 0.50989 15.2909C0.483981 14.8693 0.479082 14.4451 0.516177 14.0234C0.541491 13.7358 0.726504 13.5826 1.01724 13.5825C3.07768 13.5819 5.13809 13.5818 7.19852 13.5827C7.50765 13.5828 7.70354 13.7767 7.70563 14.0853C7.70832 14.4834 7.71016 14.8816 7.70505 15.2797C7.69707 15.8963 7.16106 16.4438 6.54679 16.4697C6.27373 16.4811 6.18341 16.5731 6.18337 16.8481C6.18292 20.3966 6.18299 23.9451 6.18334 27.4937C6.18337 27.757 6.27402 27.8474 6.54187 27.8585C7.1552 27.8837 7.6938 28.4303 7.70473 29.0458C7.71085 29.389 7.70886 29.7325 7.7054 30.0759C7.70239 30.3714 7.50279 30.5671 7.20346 30.5675C6.17325 30.5691 5.14308 30.5681 4.11286 30.5682ZM3.01752 22.1601C3.01752 22.593 3.01752 23.0259 3.01752 23.4588C3.01743 24.8471 3.01938 26.2353 3.01631 27.6235C3.01502 28.2182 2.53061 28.7877 1.95532 28.8224C1.54813 28.847 1.46971 28.9626 1.49434 29.3535C1.49495 29.3634 1.49439 29.3734 1.49442 29.3834C1.49478 29.5895 1.49478 29.5899 1.69661 29.5899C3.23912 29.59 4.78171 29.59 6.32421 29.59C6.71747 29.59 6.71747 29.59 6.71294 29.1915C6.70989 28.9297 6.64592 28.8597 6.37776 28.8415C6.15402 28.8263 5.94837 28.7611 5.76255 28.6365C5.34293 28.3551 5.18747 27.9464 5.18846 27.4576C5.19341 25.0346 5.19745 22.6115 5.19866 20.1886C5.19918 19.0791 5.19156 17.9696 5.1901 16.8601C5.18979 16.6558 5.20551 16.4518 5.29341 16.2621C5.51326 15.7877 5.87627 15.5202 6.40631 15.4913C6.61775 15.4799 6.70824 15.3811 6.71248 15.168C6.71553 15.0139 6.71256 14.8595 6.71916 14.7055C6.7238 14.5957 6.6801 14.5539 6.57028 14.5577C6.40132 14.5636 6.232 14.5589 6.06281 14.5589C4.60985 14.5588 3.15688 14.5588 1.70391 14.5589C1.49474 14.5589 1.49459 14.559 1.49434 14.7733C1.49417 14.9027 1.49301 15.0322 1.49474 15.1615C1.4977 15.3806 1.5925 15.491 1.8105 15.4903C2.45732 15.4882 3.02834 16.0998 3.02268 16.7713C3.00751 18.5674 3.01747 20.3637 3.01752 22.1601Z" fill="white" stroke="white" stroke-width="0.6"/>
<path d="M14.8159 22.1635C14.8159 23.9203 14.8159 25.6773 14.8158 27.4342C14.8158 27.5189 14.8119 27.6045 14.8456 27.6844C14.8986 27.8098 14.9988 27.8538 15.131 27.8583C15.7282 27.8788 16.2324 28.3118 16.323 28.8989C16.3531 29.0938 16.3357 29.2961 16.3376 29.495C16.3393 29.6841 16.3389 29.8733 16.3375 30.0624C16.3352 30.3816 16.1548 30.5671 15.8382 30.5673C13.7728 30.5684 11.7074 30.5683 9.64195 30.5672C9.33328 30.5671 9.1519 30.385 9.1492 30.0746C9.14636 29.7462 9.14578 29.4176 9.14911 29.0892C9.1559 28.4153 9.66795 27.8887 10.3399 27.8607C10.5741 27.8509 10.6547 27.7566 10.6547 27.4898C10.6548 24.9322 10.6548 22.3745 10.6548 19.817C10.6548 18.8223 10.6549 17.8275 10.6544 16.8327C10.6542 16.5585 10.5782 16.4813 10.302 16.4697C9.69256 16.4439 9.1582 15.9011 9.1502 15.2926C9.14482 14.8845 9.14602 14.4764 9.14915 14.0682C9.15142 13.7731 9.34343 13.5824 9.63693 13.5823C11.7074 13.5815 13.7779 13.5816 15.8483 13.5827C16.1372 13.5828 16.3353 13.7808 16.3371 14.07C16.3395 14.4782 16.3422 14.8863 16.3361 15.2944C16.3272 15.8934 15.7915 16.4407 15.1943 16.4692C14.8984 16.4834 14.8163 16.567 14.8162 16.8628C14.8156 18.6298 14.8159 20.3966 14.8159 22.1635ZM11.649 22.1485C11.649 23.9698 11.6492 25.7912 11.6489 27.6125C11.6488 28.209 11.1959 28.7321 10.5977 28.8284C10.1252 28.9044 10.1252 28.9044 10.1261 29.3889C10.1261 29.394 10.1269 29.3991 10.1261 29.4039C10.0994 29.5601 10.1722 29.5933 10.3188 29.5928C11.8615 29.5879 13.4042 29.5898 14.9469 29.5898C15.3981 29.5898 15.3981 29.5898 15.3602 29.133C15.3464 28.9661 15.2579 28.873 15.0898 28.8507C15.0307 28.8429 14.9711 28.8383 14.9117 28.8319C14.3613 28.7729 13.8703 28.2628 13.84 27.7141C13.8287 27.5105 13.822 27.3064 13.8226 27.1025C13.8246 26.3766 13.8442 25.6504 13.8315 24.9247C13.817 24.1036 13.8252 23.2827 13.8229 22.4618C13.821 21.8006 13.8414 21.1393 13.8335 20.4782C13.8184 19.2244 13.8182 17.9709 13.8339 16.7173C13.8426 16.0276 14.4417 15.4867 15.0504 15.4897C15.2476 15.4906 15.3557 15.366 15.3604 15.1636C15.3638 15.0195 15.3526 14.8743 15.3637 14.731C15.3746 14.5897 15.3204 14.5557 15.1848 14.5564C14.075 14.5613 12.9652 14.5589 11.8555 14.5588C11.328 14.5587 10.8005 14.5609 10.273 14.5569C10.1651 14.556 10.1192 14.5871 10.1244 14.7007C10.1318 14.8596 10.1243 15.0191 10.1268 15.1783C10.1298 15.3703 10.2364 15.4914 10.4319 15.4893C11.0323 15.4827 11.6638 16.0246 11.6553 16.804C11.6359 18.5853 11.6492 20.367 11.649 22.1485Z" fill="white" stroke="white" stroke-width="0.6"/>
<path d="M21.3753 13.5821C22.3955 13.582 23.4157 13.582 24.4359 13.5821C24.7731 13.5821 24.9599 13.7307 24.9734 14.065C24.9926 14.5411 25.0355 15.0225 24.9399 15.4935C24.8236 16.0666 24.356 16.444 23.7754 16.4705C23.5637 16.4801 23.4715 16.5685 23.4638 16.7862C23.4288 17.7761 23.4528 18.7663 23.4506 19.7564C23.4492 20.3931 23.4489 21.0298 23.4486 21.6665C23.4479 22.5025 23.4476 23.3384 23.4474 24.1743C23.4472 25.0946 23.4465 26.0148 23.4482 26.935C23.4486 27.1388 23.4557 27.3427 23.4636 27.5464C23.4721 27.764 23.5549 27.8442 23.7761 27.8576C24.3788 27.8944 24.8518 28.2883 24.9512 28.88C25.0231 29.3074 25.0056 29.7439 24.9636 30.1749C24.9398 30.4201 24.7335 30.5677 24.4623 30.5678C23.0888 30.5687 21.7152 30.5683 20.3417 30.5683C19.66 30.5683 18.9782 30.5692 18.2965 30.5678C17.9656 30.5671 17.7813 30.3801 17.7807 30.0488C17.78 29.7153 17.7777 29.3819 17.7813 29.0485C17.7879 28.4405 18.3184 27.8907 18.9249 27.8589C19.2213 27.8435 19.3023 27.7613 19.3025 27.4645C19.3032 25.877 19.3027 24.2895 19.3027 22.7021C19.3027 20.7762 19.3028 18.8503 19.3028 16.9245C19.3028 16.8847 19.3035 16.8448 19.3018 16.8051C19.2922 16.5827 19.1899 16.4806 18.9674 16.4705C18.2988 16.4399 17.7833 15.9038 17.7808 15.2343C17.7794 14.8511 17.7791 14.4679 17.781 14.0847C17.7825 13.7748 17.9752 13.5828 18.2849 13.5826C19.315 13.5817 20.3452 13.5823 21.3753 13.5821ZM21.3897 14.5586V14.56C20.5634 14.56 19.7372 14.5618 18.911 14.5579C18.7951 14.5574 18.7488 14.5918 18.7554 14.7111C18.7634 14.855 18.7557 14.9997 18.7576 15.144C18.7607 15.376 18.8595 15.4778 19.0926 15.4925C19.7879 15.5364 20.2802 16.0598 20.2802 16.7569C20.2802 17.7024 20.2788 18.6479 20.2787 19.5934C20.2784 22.2811 20.2794 24.9688 20.2776 27.6565C20.2773 28.2425 19.7575 28.7915 19.1731 28.8336C18.8217 28.8589 18.7519 28.9341 18.755 29.2843C18.7554 29.3241 18.7618 29.3648 18.7559 29.4036C18.7323 29.5601 18.8038 29.5931 18.9502 29.5926C20.5181 29.5878 22.0859 29.5899 23.6537 29.5899C23.9927 29.59 23.9927 29.5899 23.9923 29.2509C23.9918 28.9385 23.9215 28.8606 23.6174 28.8354C22.9591 28.781 22.4697 28.2517 22.4696 27.5914C22.4693 23.9729 22.4694 20.3545 22.4699 16.7361C22.4699 16.6666 22.47 16.596 22.4816 16.528C22.5808 15.948 23.0663 15.5244 23.6643 15.493C23.8864 15.4812 23.9885 15.3768 23.9917 15.1534C23.9938 15.0091 23.9833 14.8641 23.994 14.7206C24.0041 14.5853 23.952 14.5549 23.8235 14.5557C23.0123 14.5614 22.2009 14.5586 21.3897 14.5586Z" fill="white" stroke="white" stroke-width="0.6"/>
</svg>
