<svg width="28" height="19" viewBox="0 0 28 19" fill="none" xmlns="http://www.w3.org/2000/svg">
<path d="M14.0179 1.01589C17.3791 1.01589 20.7407 1.0514 24.1011 1.00032C25.6776 0.976344 27.0176 2.32135 26.9998 3.88876C26.9545 7.88223 26.9874 11.8766 26.9844 15.8706C26.9833 17.391 25.7563 18.6135 24.2323 18.6138C17.4227 18.6155 10.6131 18.6152 3.80358 18.6125C2.205 18.6118 1.00663 17.4212 1.00434 15.8217C0.998641 11.8276 0.998378 7.83345 1.0046 3.83938C1.00716 2.18348 2.17605 1.0195 3.83626 1.01649C7.23017 1.01028 10.624 1.0146 14.0179 1.0146V1.01589ZM14.0154 8.65896C10.0872 8.65896 6.15892 8.66125 2.23073 8.65411C1.94893 8.65361 1.82646 8.70565 1.82849 9.02829C1.84243 11.2433 1.83163 13.4584 1.83753 15.6734C1.841 16.963 2.66704 17.7806 3.95578 17.7808C10.6556 17.782 17.3554 17.7821 24.0552 17.78C25.3213 17.7796 26.149 16.9503 26.1509 15.6841C26.1541 13.4909 26.1522 11.2976 26.1512 9.10437C26.151 8.65969 26.1484 8.65911 25.7019 8.65902C21.8064 8.65892 17.9109 8.65896 14.0154 8.65896ZM13.9944 7.8265C17.9124 7.8265 21.8303 7.82344 25.7483 7.83245C26.0576 7.83319 26.1651 7.75041 26.1588 7.42996C26.1399 6.48086 26.1401 5.53091 26.1595 4.5818C26.1658 4.26965 26.0574 4.19932 25.7642 4.20071C23.4724 4.21119 21.1805 4.20634 18.8886 4.20626C13.3445 4.20607 7.8004 4.20855 2.25634 4.19924C1.93032 4.19866 1.82083 4.28176 1.82849 4.61898C1.85009 5.56796 1.84642 6.518 1.82953 7.46716C1.82423 7.76298 1.92705 7.83221 2.20768 7.83168C6.13658 7.8235 10.0655 7.82611 13.9944 7.8265ZM13.9954 3.37355C17.8905 3.37355 21.7857 3.37361 25.6808 3.37341C26.1096 3.37341 26.1421 3.32324 25.9357 2.93644C25.5362 2.18789 24.8923 1.85079 24.0597 1.85034C20.4482 1.84837 16.8368 1.84831 13.2253 1.84799C10.1376 1.84764 7.04986 1.84803 3.96214 1.84791C3.11769 1.84783 2.46088 2.17924 2.05483 2.93978C1.84676 3.32952 1.87663 3.37341 2.31005 3.37341C6.20516 3.37365 10.1003 3.37355 13.9954 3.37355Z" fill="white" stroke="white" stroke-width="0.6"/>
<path d="M22.5701 15.9493C22.0174 15.7067 21.3865 15.8285 20.7306 15.9017C19.6679 16.0202 18.802 15.1757 18.6516 14.0292C18.5327 13.1226 19.2808 12.1219 20.2276 11.8971C20.6166 11.8046 20.9882 11.8462 21.3464 11.9914C21.5441 12.0716 21.7084 12.061 21.907 11.9917C23.066 11.5875 24.2689 12.1885 24.5897 13.3174C24.9126 14.4541 24.236 15.6052 23.0798 15.879C22.9433 15.9114 22.8008 15.9184 22.5701 15.9493ZM21.7815 13.8895C21.7806 13.2377 21.2747 12.7194 20.6344 12.714C19.9834 12.7087 19.4426 13.2499 19.4526 13.897C19.4624 14.5386 19.9809 15.0449 20.6305 15.0471C21.2843 15.0492 21.7826 14.5481 21.7815 13.8895ZM23.8077 13.8947C23.8071 13.2287 23.2786 12.7 22.6334 12.7137C22.4466 12.7177 22.3337 12.7328 22.4503 12.9712C22.7503 13.585 22.7567 14.21 22.4454 14.8241C22.3482 15.0159 22.4288 15.0443 22.5964 15.0555C23.2693 15.1006 23.8084 14.5871 23.8077 13.8947Z" fill="white" stroke="white" stroke-width="0.6"/>
<path d="M6.92133 14.4219C5.91761 14.4218 4.91383 14.4232 3.91003 14.4211C3.54321 14.4204 3.36658 14.2816 3.36646 14.0062C3.36632 13.7313 3.54276 13.5915 3.91068 13.5911C5.91827 13.5892 7.92577 13.5908 9.93336 13.5889C10.1391 13.5887 10.3303 13.6096 10.4359 13.818C10.5892 14.1208 10.3802 14.4178 9.99812 14.4201C9.02715 14.426 8.05604 14.422 7.08499 14.422C7.03044 14.422 6.97589 14.422 6.92133 14.4219Z" fill="white" stroke="white" stroke-width="0.6"/>
</svg>
