<svg width="29" height="29" viewBox="0 0 29 29" fill="none" xmlns="http://www.w3.org/2000/svg">
<path d="M16.4489 11.083C16.449 9.46835 16.4488 7.85372 16.4491 6.23904C16.4493 5.68368 16.6177 5.51443 17.1763 5.52975C19.8769 5.60421 22.268 6.50216 24.3136 8.2698C26.5118 10.1693 27.8211 12.5742 28.1582 15.4569C28.5348 18.6785 27.6811 21.5741 25.5903 24.0677C23.6814 26.3443 21.2277 27.6822 18.2804 28.021C14.9978 28.3983 12.0696 27.4945 9.56299 25.3291C7.42542 23.4826 6.17925 21.1333 5.76945 18.3421C5.7026 17.8868 5.665 17.4263 5.66707 16.964C5.66921 16.4946 5.84772 16.3097 6.32122 16.3095C9.22616 16.3084 12.1311 16.3089 15.036 16.3089C15.418 16.3089 15.8004 16.2996 16.182 16.3125C16.3935 16.3197 16.453 16.2377 16.4523 16.035C16.4463 14.3843 16.4489 12.7337 16.4489 11.083ZM17.4511 11.7686C17.4511 13.4122 17.4514 15.0558 17.4509 16.6994C17.4508 17.1439 17.2831 17.3106 16.8359 17.3108C15.1707 17.3114 13.5054 17.3111 11.8401 17.3111C10.2037 17.3111 8.56736 17.3108 6.93093 17.3115C6.68639 17.3117 6.66428 17.3379 6.69022 17.5693C6.71914 17.8269 6.73675 18.0864 6.77851 18.3419C7.21319 21.0026 8.45301 23.216 10.5785 24.8737C13.2809 26.9816 16.3335 27.6079 19.6515 26.7357C24.2648 25.5233 27.5123 21.12 27.2244 16.2589C27.1334 14.7219 26.7362 13.2795 26.0022 11.9281C25.0148 10.1104 23.6053 8.71554 21.7863 7.73605C20.5253 7.05703 19.176 6.67214 17.7486 6.55532C17.4679 6.53219 17.4516 6.53426 17.4515 6.81625C17.4511 8.46694 17.4513 10.1178 17.4511 11.7686Z" fill="white" stroke="white"/>
<path d="M12.9448 6.91844C12.9448 8.64879 12.945 10.3791 12.9448 12.1095C12.9447 12.6185 12.7617 12.8045 12.2593 12.8045C8.79138 12.8049 5.32341 12.805 1.85547 12.8045C1.28693 12.8044 1.12397 12.5834 1.1501 12.0091C1.19194 11.0903 1.30722 10.1864 1.55398 9.3007C2.03639 7.56901 2.87699 6.03441 4.09298 4.70811C5.89905 2.73808 8.1275 1.55546 10.7625 1.12974C11.2831 1.04558 11.809 1.02708 12.3336 1.0012C12.7396 0.981124 12.9435 1.21251 12.9439 1.6624C12.9457 3.36388 12.9447 5.06541 12.9448 6.76695C12.9448 6.81749 12.9448 6.8679 12.9448 6.91844ZM11.9425 6.92223C11.9425 5.39427 11.9427 3.86619 11.9424 2.33818C11.9423 2.03093 11.9385 2.01982 11.6243 2.04381C11.3303 2.06621 11.035 2.09441 10.7453 2.14763C7.63441 2.71959 5.24645 4.35582 3.59618 7.05168C2.76173 8.41484 2.30447 9.90758 2.18275 11.501C2.15998 11.7989 2.17254 11.8024 2.47337 11.8024C5.52938 11.8026 8.58538 11.8025 11.6414 11.8023C11.9414 11.8023 11.9423 11.8014 11.9424 11.5062C11.9427 9.97826 11.9425 8.45024 11.9425 6.92223Z" fill="white" stroke="white"/>
</svg>
