<svg width="21" height="18" viewBox="0 0 21 18" fill="none" xmlns="http://www.w3.org/2000/svg">
<path d="M5.38244 8.28786C6.88644 8.28804 8.3905 8.28829 9.89453 8.28783C10.2127 8.28777 10.5312 8.29424 10.8488 8.28017C11.0147 8.27281 11.1774 8.30266 11.3433 8.29079C11.5195 8.27822 11.6974 8.28804 11.8746 8.28804C12.0475 8.28804 12.2204 8.28804 12.3932 8.28804H12.9248C13.102 8.28804 13.2792 8.28807 13.4564 8.28804C13.6664 8.28801 13.66 8.28557 13.7326 8.09178C14.1462 6.98781 14.9272 6.31716 16.1019 6.16118C17.491 5.97679 18.7867 6.83126 19.1886 8.16573C19.2158 8.25621 19.2578 8.28997 19.352 8.28932C19.8317 8.28582 20.3115 8.29109 20.7912 8.28578C20.9131 8.28441 20.9598 8.32012 20.9576 8.44686C20.9511 8.81847 20.9507 9.19029 20.9575 9.56188C20.9598 9.69051 20.9099 9.72319 20.7899 9.72188C20.3319 9.71685 19.8737 9.7246 19.4156 9.71736C19.279 9.71523 19.2133 9.7527 19.1669 9.89141C18.7632 11.0989 17.6532 11.8944 16.4184 11.8728C15.1833 11.8512 14.1328 11.0811 13.733 9.89235C13.6869 9.75518 13.6238 9.71703 13.4859 9.71712C9.08621 9.72039 4.68652 9.71981 0.286772 9.71981C0.243559 9.71981 0.199919 9.71596 0.157225 9.72051C0.047392 9.73223 0.00610167 9.69454 0.00839049 9.57592C0.0159283 9.18709 0.0144025 8.79799 0.00866515 8.40917C0.00723082 8.31179 0.0326825 8.2853 0.131285 8.28551C1.88168 8.28856 3.63208 8.28774 5.38244 8.28786ZM17.887 9.00691C17.8902 8.21065 17.2558 7.58083 16.4614 7.56368C15.6831 7.54686 15.0069 8.22023 15.0108 8.99636C15.0148 9.79012 15.6477 10.4386 16.4377 10.4408C17.2401 10.4431 17.8838 9.80623 17.887 9.00691Z" fill="white"/>
<path d="M16.3761 15.8441C14.9155 15.8442 13.4548 15.8459 11.9942 15.8414C11.8651 15.841 11.8108 15.8787 11.7667 16.0043C11.4113 17.0168 10.722 17.6821 9.66799 17.9207C8.65696 18.1495 7.77381 17.8786 7.02442 17.1614C6.67882 16.8306 6.44701 16.4327 6.30761 15.9802C6.27393 15.8708 6.22031 15.8422 6.11409 15.8425C4.85224 15.8452 3.59037 15.8443 2.32848 15.8442C1.60689 15.8442 0.885258 15.842 0.163655 15.8459C0.0492444 15.8466 0.00577212 15.8198 0.0080762 15.6949C0.0152783 15.3061 0.0125623 14.917 0.00445986 14.5283C0.00207949 14.4136 0.0650525 14.413 0.143086 14.413C0.618474 14.413 1.09382 14.4129 1.56917 14.4128C2.118 14.4128 2.66681 14.4126 3.21564 14.4126C4.16971 14.4126 5.12383 14.4106 6.07789 14.4154C6.20888 14.4161 6.27123 14.381 6.31827 14.2486C6.70946 13.148 7.47936 12.4748 8.63682 12.2946C9.499 12.1603 10.2676 12.4069 10.9308 12.9799C11.3412 13.3345 11.6174 13.7738 11.7757 14.2882C11.8114 14.4039 11.8836 14.4138 11.9813 14.4136C12.8023 14.4121 13.6234 14.4128 14.4445 14.4128C16.5274 14.4128 18.6104 14.4129 20.6933 14.4128C20.985 14.4128 20.9549 14.3995 20.9551 14.6685C20.9553 14.9883 20.9552 15.308 20.9552 15.6279C20.9553 15.8437 20.9553 15.8439 20.7451 15.8439C19.2888 15.844 17.8324 15.8439 16.3761 15.8441ZM9.02843 16.5652C9.8236 16.5712 10.4817 15.9268 10.4822 15.1381C10.4828 14.35 9.83844 13.6974 9.05788 13.6901C8.26639 13.6828 7.60653 14.3211 7.59882 15.1016C7.59086 15.9084 8.22651 16.5591 9.02843 16.5652Z" fill="white"/>
<path d="M14.6268 3.5802C12.7512 3.58026 10.8757 3.58026 9.00011 3.58026C8.81433 3.58026 8.6283 3.58624 8.44286 3.57831C8.3351 3.57367 8.28951 3.62048 8.25949 3.71643C8.07468 4.30749 7.73575 4.7904 7.24103 5.16565C6.8167 5.48749 6.33875 5.67059 5.81246 5.7265C5.29424 5.78155 4.79488 5.69891 4.3236 5.47638C3.56952 5.12024 3.06008 4.54071 2.80065 3.74988C2.75479 3.61017 2.69245 3.57642 2.55613 3.57745C1.75237 3.58337 0.94852 3.57709 0.144764 3.58386C0.0226476 3.58484 0.00552725 3.547 0.00679373 3.43835C0.0114324 3.03662 0.00926566 2.63476 6.46068e-05 2.23315C-0.00216318 2.13556 0.0536687 2.16418 0.0985601 2.16412C0.915333 2.16357 1.73214 2.16052 2.54883 2.16809C2.69316 2.16943 2.75299 2.1283 2.80317 1.98761C3.20923 0.84851 4.0195 0.18518 5.21546 0.0242303C5.8312 -0.0586554 6.4222 0.0728753 6.96061 0.391662C7.58629 0.762084 8.01978 1.29462 8.24431 1.98761C8.29044 2.13 8.36098 2.16778 8.50402 2.1676C12.5663 2.16388 16.6286 2.16467 20.6908 2.16467C20.7297 2.16467 20.769 2.16852 20.8074 2.164C20.9213 2.15063 20.9584 2.19958 20.9569 2.31219C20.9519 2.69244 20.9521 3.07281 20.9571 3.453C20.9584 3.55615 20.9251 3.58325 20.823 3.58295C19.4187 3.57947 18.0144 3.58026 16.6102 3.58014C15.9491 3.58008 15.2879 3.58008 14.6268 3.5802ZM6.96492 2.87939C6.96564 2.08392 6.30527 1.42322 5.5138 1.42731C4.72966 1.4314 4.09029 2.08112 4.09035 2.87372C4.09044 3.67352 4.7334 4.32117 5.52881 4.31641C6.32514 4.31152 6.96369 3.6488 6.96492 2.87939Z" fill="white"/>
</svg>
