<svg width="30" height="30" viewBox="0 0 30 30" fill="none" xmlns="http://www.w3.org/2000/svg">
<path d="M1 19.3035C1.33325 18.498 1.76483 18.2078 2.63068 18.2075C3.43195 18.2074 4.23303 18.2077 5.03424 18.2079C5.71393 18.208 6.23657 18.4698 6.51624 19.1165C6.57892 19.2613 6.65167 19.2845 6.78851 19.2231C7.11224 19.0778 7.45007 18.961 7.76465 18.7987C8.94324 18.1908 10.1688 18.1142 11.4536 18.3736C12.4856 18.5818 13.5323 18.7176 14.568 18.8847C14.629 18.8027 14.5672 18.7531 14.5394 18.704C13.5293 16.9215 13.3427 15.0347 13.7868 13.0541C14.2456 11.0079 15.1285 9.17499 16.4727 7.56644C16.588 7.42838 16.5865 7.3602 16.4445 7.24481C15.9389 6.83435 15.768 6.29434 15.9669 5.68088C16.1663 5.06512 16.6263 4.73682 17.2765 4.70328C17.4828 4.69269 17.4963 4.60922 17.4411 4.44159C17.2559 3.87997 17.0784 3.31573 16.8995 2.75201C16.704 2.1358 16.9171 1.72736 17.5374 1.53009C18.3201 1.28104 19.1191 1.11115 19.9376 1.03448C19.9819 1.0304 20.0248 1.01184 20.0684 1H22.0353C22.0789 1.01184 22.1218 1.03043 22.1661 1.03458C22.9755 1.11014 23.7654 1.27997 24.5399 1.52429C25.1807 1.72644 25.3906 2.11819 25.1935 2.75925C25.017 3.33325 24.8337 3.90527 24.6446 4.47528C24.5888 4.64352 24.6218 4.69473 24.8055 4.70422C25.4539 4.73761 25.9401 5.10028 26.1286 5.66714C26.3253 6.25836 26.1585 6.82556 25.6406 7.25146C25.5051 7.36288 25.5079 7.42813 25.6161 7.55243C26.1263 8.1377 26.5611 8.77698 26.9393 9.45468C27.8384 11.0656 28.4219 12.7779 28.5325 14.6277C28.6049 15.8374 28.3719 17.0002 27.8618 18.1033C27.804 18.2284 27.7148 18.3315 27.9437 18.4011C28.5275 18.5789 28.8868 18.9864 28.9781 19.5871C29.0723 20.2067 28.8385 20.7022 28.3328 21.083C25.0598 23.5471 21.79 26.0154 18.5207 28.4843C17.8646 28.9797 17.1425 29.1154 16.3538 28.9032C14.2718 28.3428 12.1905 27.7794 10.1089 27.217C9.04614 26.9299 7.98376 26.6418 6.9209 26.3551C6.78046 26.3172 6.65009 26.257 6.58179 26.4812C6.3465 27.2542 5.85315 27.6132 5.05011 27.6163C4.26703 27.6192 3.48352 27.599 2.70123 27.622C1.89032 27.6459 1.31091 27.3354 1 26.5703V19.3035ZM21.0394 7.56659C20.1016 7.56659 19.1635 7.58148 18.2263 7.55847C17.8986 7.55045 17.687 7.66812 17.4797 7.9039C16.046 9.53473 15.1146 11.4095 14.7036 13.5423C14.326 15.5015 14.666 17.3024 15.8775 18.916C15.9913 19.0675 16.1259 19.143 16.3051 19.1715C17.8226 19.4126 19.3384 19.6653 20.8578 19.8943C21.4932 19.9901 22.0389 20.1928 22.3389 20.8137C22.4288 20.9999 22.5498 20.8923 22.6556 20.8328C23.8135 20.1808 24.9698 19.5258 26.1282 18.8745C26.2831 18.7874 26.4031 18.6739 26.4999 18.524C27.4904 16.9906 27.7468 15.3187 27.3982 13.5514C26.968 11.3698 26.0289 9.43555 24.5071 7.79608C24.3588 7.63629 24.2101 7.56042 23.9891 7.56265C23.006 7.57254 22.0226 7.56693 21.0394 7.56659ZM16.5462 21.962C17.9393 21.962 19.3322 21.9621 20.7252 21.9617C20.8161 21.9617 20.9083 21.9661 20.9979 21.954C21.2809 21.9156 21.4576 21.7336 21.4728 21.4751C21.4881 21.2165 21.3387 21.0168 21.0529 20.9533C20.7692 20.8902 20.481 20.8466 20.1938 20.8002C17.1777 20.3138 14.16 19.8369 11.1461 19.3376C10.3152 19.2 9.50262 19.1363 8.70673 19.4786C8.10468 19.7375 7.50714 20.0069 6.90063 20.2545C6.70026 20.3364 6.63025 20.4477 6.63153 20.6626C6.64032 22.01 6.63574 23.3575 6.63629 24.7049C6.63647 25.2441 6.63721 25.2445 7.16223 25.3866C10.2885 26.2328 13.4156 27.0754 16.54 27.9284C17.0735 28.0742 17.533 27.9884 17.9747 27.6542C21.1835 25.2263 24.3978 22.8056 27.6102 20.3823C27.9882 20.0971 28.0928 19.801 27.9109 19.5385C27.7236 19.2684 27.4609 19.257 27.0394 19.4955C25.5342 20.3472 24.0289 21.1985 22.522 22.0472C22.3766 22.1292 22.2545 22.2267 22.1538 22.3629C21.9086 22.6941 21.5728 22.8795 21.1639 22.9278C21.0082 22.9462 20.8629 22.9855 20.7247 23.0639C19.8301 23.5715 18.9309 24.0709 18.0388 24.5827C17.4857 24.9 16.9526 24.883 16.4168 24.5462C15.677 24.0811 14.9306 23.6263 14.1928 23.1581C13.9776 23.0214 13.7603 22.952 13.5019 22.9563C13.0656 22.9635 12.6286 22.9442 12.1923 22.9284C11.896 22.9178 11.7015 22.7251 11.697 22.4544C11.6924 22.1745 11.895 21.9769 12.2034 21.963C12.2761 21.9596 12.349 21.9616 12.4219 21.9616C13.7966 21.9615 15.1714 21.9615 16.5462 21.962ZM5.62927 22.938C5.62927 21.8825 5.63086 20.827 5.62848 19.7715C5.62756 19.371 5.46667 19.2128 5.06244 19.2118C4.21625 19.2095 3.36993 19.2095 2.5238 19.2122C2.12469 19.2135 1.95563 19.369 1.95459 19.7751C1.94904 21.868 1.94879 23.9607 1.95459 26.0535C1.95563 26.457 2.1264 26.6087 2.52863 26.6096C3.3656 26.6112 4.20282 26.6109 5.03986 26.6094C5.48621 26.6085 5.62799 26.4675 5.62848 26.0226C5.62994 24.9944 5.62897 23.9662 5.62927 22.938ZM21.0519 4.69955C21.7894 4.69955 22.5271 4.69354 23.2646 4.70355C23.4608 4.70615 23.5594 4.64395 23.6162 4.45236C23.7871 3.87665 23.9669 3.30325 24.1601 2.73468C24.2307 2.52698 24.178 2.44324 23.9727 2.38568C22.0049 1.83408 20.0414 1.83551 18.0759 2.40015C17.8748 2.45795 17.8712 2.54608 17.9275 2.71429C18.1182 3.28381 18.3069 3.85443 18.4743 4.43097C18.5383 4.65109 18.6519 4.70737 18.8665 4.70398C19.5948 4.69247 20.3234 4.69962 21.0519 4.69955ZM21.0793 5.70535C19.8409 5.70535 18.6025 5.70297 17.3643 5.70706C17.0646 5.7081 16.9041 5.86472 16.902 6.12772C16.9 6.39026 17.0622 6.55582 17.3581 6.55624C19.8167 6.55991 22.2751 6.55835 24.7337 6.55957C24.9241 6.55972 25.0736 6.49136 25.1576 6.31714C25.3094 6.00177 25.1 5.70859 24.7125 5.70724C23.5014 5.70297 22.2904 5.70566 21.0793 5.70535ZM15.8582 22.9762L15.8387 23.0215C16.2615 23.2777 16.6834 23.5353 17.1077 23.7889C17.1802 23.8322 17.2752 23.8425 17.3458 23.8052C17.8278 23.5499 18.3055 23.2864 18.7845 23.0255C18.776 23.009 18.7676 22.9926 18.759 22.9762H15.8582Z" fill="white" stroke="white" stroke-width="0.5"/>
<path d="M20.5467 15.3422C20.5469 15.0328 20.5277 14.7218 20.5526 14.4144C20.5745 14.143 20.4807 14.0211 20.2205 13.9246C18.852 13.4179 18.2799 11.8448 18.9879 10.5717C19.2781 10.0504 19.7072 9.68314 20.277 9.49507C20.4342 9.44318 20.5427 9.37148 20.6023 9.2049C20.6726 9.00824 20.8334 8.90779 21.0478 8.90627C21.2638 8.90474 21.4273 9.00949 21.4937 9.20372C21.5562 9.38687 21.6802 9.44692 21.8428 9.50241C22.7167 9.80089 23.3642 10.6655 23.4109 11.5821C23.429 11.9356 23.2416 12.1928 22.9512 12.2129C22.6535 12.2337 22.4329 12.016 22.4088 11.659C22.3764 11.1779 22.1604 10.8131 21.7512 10.559C21.6182 10.4765 21.5531 10.4944 21.5536 10.6639C21.5557 11.4283 21.5589 12.1928 21.5518 12.9572C21.5498 13.1464 21.6769 13.1725 21.8065 13.2188C22.7603 13.5597 23.3887 14.4058 23.4141 15.3793C23.4408 16.4087 22.8195 17.3212 21.8416 17.6737C21.6796 17.732 21.557 17.7951 21.4942 17.9765C21.4265 18.1716 21.257 18.2758 21.0463 18.2743C20.8355 18.273 20.6717 18.1663 20.6016 17.9709C20.542 17.805 20.4348 17.7363 20.2791 17.6795C19.3765 17.3502 18.8659 16.6916 18.7041 15.7544C18.6844 15.6393 18.6811 15.5168 18.6962 15.4011C18.7282 15.1569 18.8715 15.0056 19.1206 14.9732C19.3673 14.9411 19.573 15.0699 19.6466 15.3087C19.6784 15.4116 19.6847 15.5228 19.6986 15.6307C19.7534 16.0553 19.9689 16.3755 20.3253 16.6063C20.4723 16.7015 20.553 16.6987 20.5487 16.4888C20.5408 16.1067 20.5464 15.7244 20.5467 15.3422ZM20.547 11.7645C20.547 11.4108 20.542 11.057 20.549 10.7035C20.5529 10.4977 20.4932 10.4641 20.3153 10.5715C19.4704 11.0816 19.4901 12.4068 20.3498 12.8941C20.5171 12.9889 20.5512 12.9361 20.5487 12.7711C20.5436 12.4356 20.5471 12.1 20.547 11.7645ZM21.5545 15.4464C21.5545 15.7912 21.5592 16.1361 21.5525 16.4808C21.5489 16.667 21.5998 16.7105 21.7697 16.6109C22.6134 16.1167 22.619 14.8138 21.7801 14.3008C21.5949 14.1875 21.5474 14.2433 21.5519 14.4392C21.5597 14.7748 21.5541 15.1107 21.5545 15.4464Z" fill="white" stroke="white" stroke-width="0.5"/>
<path d="M3.78544 24.7551C3.95775 24.7551 4.13103 24.7434 4.30205 24.7579C4.55961 24.7796 4.74364 24.9767 4.75523 25.2196C4.76652 25.4553 4.62163 25.6692 4.3762 25.7142C3.99138 25.7847 3.59886 25.7889 3.2144 25.7144C2.96116 25.6652 2.81859 25.4347 2.84459 25.1872C2.86925 24.9517 3.04466 24.7761 3.29594 24.7564C3.45817 24.7436 3.62224 24.754 3.78544 24.754V24.7551Z" fill="white" stroke="white" stroke-width="0.5"/>
<path d="M3.77528 21.0665C3.61146 21.0665 3.44673 21.0772 3.28407 21.0641C3.03364 21.0437 2.86183 20.8625 2.84406 20.622C2.82624 20.3805 2.96461 20.1628 3.2082 20.1147C3.60371 20.0366 4.00764 20.0345 4.40113 20.1195C4.64124 20.1713 4.75764 20.3641 4.75306 20.6097C4.74873 20.8438 4.56324 21.0306 4.32099 21.065C4.30305 21.0676 4.2848 21.0684 4.26667 21.0685C4.10279 21.0687 3.93897 21.0686 3.77528 21.0686V21.0665Z" fill="white" stroke="white" stroke-width="0.5"/>
</svg>
