<svg width="34" height="23" viewBox="0 0 34 23" fill="none" xmlns="http://www.w3.org/2000/svg">
<path d="M2.13546 4.07822C2.09283 4.44174 2.46487 4.53091 2.45498 4.80618C2.44625 5.04379 2.26449 5.15121 2.09264 5.25967C1.83923 5.41977 1.59872 5.37723 1.40542 5.16434C0.872308 4.57761 0.736169 3.86001 0.830956 3.10751C0.8807 2.71371 1.22344 2.61258 1.58697 2.62936C2.32974 2.66373 2.98226 2.93668 3.49526 3.46518C3.80169 3.78085 4.02801 3.81363 4.39764 3.55319C9.56558 -0.0885324 17.3219 0.361907 22.0971 3.66019C22.524 3.95499 22.8487 3.95938 23.263 3.68692C24.1752 3.08658 25.1009 2.50607 26.0327 1.93668C26.3839 1.72208 26.7421 1.34164 27.196 1.71786C27.6351 2.082 27.3484 2.51443 27.2462 2.91568C27.0834 3.55533 26.9159 4.19473 26.7222 4.82559C26.6031 5.21316 26.6913 5.43576 27.0803 5.5983C28.4491 6.17001 29.4616 7.15201 30.1152 8.46744C30.4379 9.11685 30.9853 8.99106 31.4862 9.0068C32.6954 9.04459 32.6335 9.07522 32.7586 10.2426C33.1111 13.5324 31.3779 15.4878 28.6995 16.9012C27.2027 17.6911 25.6098 18.2027 23.9542 18.5046C23.4135 18.6031 23.2186 18.8329 23.2389 19.3567C23.2606 19.9142 23.2406 20.4738 23.2253 21.0322C23.2094 21.6142 22.9167 21.9163 22.3165 21.912C21.2495 21.9041 20.1824 21.8986 19.1155 21.9109C18.5367 21.9174 18.2222 21.5335 17.9983 21.1135C17.4481 20.0813 16.709 19.8062 15.5261 20.0135C13.9751 20.2852 12.3784 20.1454 10.8466 19.7097C10.1432 19.5096 9.96435 19.7088 9.97048 20.404C9.98345 21.899 9.94329 21.9089 8.41192 21.9091C7.29397 21.9091 6.17535 21.8822 5.05853 21.9181C4.34121 21.941 3.98687 21.65 3.86392 20.9473C3.50976 18.9221 3.12667 16.9019 2.74835 14.8809C2.66888 14.457 2.5433 14.0601 2.26708 13.6981C0.207452 10.9978 0.281243 7.97244 2.45043 5.31253C3.02084 4.61282 2.95968 4.34598 2.13546 4.07822ZM25.7057 3.76956L25.5446 3.67789C24.775 4.16403 23.9894 4.6271 23.2416 5.14468C22.762 5.47653 22.3824 5.45181 21.9525 5.06924C21.3623 4.54379 20.6873 4.13827 19.9753 3.79092C17.3991 2.53439 14.6611 2.09585 11.8311 2.28537C9.06957 2.47037 6.47189 3.20383 4.31579 5.05295C1.77883 7.2283 1.25872 10.2878 3.07613 12.7033C3.64159 13.4548 3.90023 14.2469 4.05334 15.1271C4.2619 16.3271 4.48196 17.5252 4.71426 18.7209C5.09283 20.6685 5.09863 20.6675 7.06756 20.6469C8.6766 20.63 8.6766 20.63 8.72613 19.054C8.75625 18.0973 9.0584 17.8687 9.9804 18.1919C12.1732 18.9601 14.413 18.9993 16.6711 18.6324C17.3062 18.5291 17.7504 18.6437 18.093 19.2C18.3186 19.5662 18.5977 19.9002 18.8625 20.241C19.0023 20.4212 19.154 20.623 19.4064 20.62C20.2123 20.6109 21.132 20.9245 21.7877 20.4823C22.2885 20.1444 21.9008 19.2902 21.98 18.6717C21.9832 18.6468 21.9837 18.6208 21.981 18.5957C21.8986 17.8321 22.2573 17.495 23.0074 17.4061C24.5779 17.2198 26.1166 16.8493 27.5422 16.1615C29.7382 15.1018 31.723 13.867 31.5032 10.9193C31.4546 10.2682 31.2593 10.123 30.7112 10.1998C29.9521 10.3062 29.5062 10.0042 29.176 9.28928C28.5191 7.86685 27.4806 6.83182 25.8673 6.51126C25.2632 6.39114 25.0891 6.0253 25.2648 5.44205C25.4312 4.89047 25.5603 4.32754 25.7057 3.76956Z" fill="white" stroke="white" stroke-width="0.8"/>
<path d="M15.7838 6.36144C14.9217 6.11436 14.0058 5.83257 13.0448 5.69316C11.4903 5.46751 10.0156 5.75157 8.55798 6.23009C8.12601 6.37206 7.67505 6.54515 7.47104 5.97527C7.28625 5.45915 7.71182 5.24944 8.10086 5.10362C10.7349 4.11693 13.3652 4.18565 15.9865 5.16069C16.3207 5.28484 16.5883 5.48186 16.5157 5.88457C16.4527 6.23405 16.2079 6.39311 15.7838 6.36144Z" fill="white" stroke="white" stroke-width="0.8"/>
<path d="M24.126 9.90943C24.1405 9.35883 24.4214 9.03128 24.956 9.02005C25.4969 9.00858 25.8121 9.35532 25.8187 9.8739C25.8252 10.3585 25.5253 10.7075 25.0275 10.7187C24.518 10.7303 24.1714 10.4575 24.126 9.90943Z" fill="white" stroke="white" stroke-width="0.8"/>
</svg>
