<svg width="28" height="26" viewBox="0 0 28 26" fill="none" xmlns="http://www.w3.org/2000/svg">
<path d="M12.7786 24.9958C10.3534 24.9958 7.92829 24.9983 5.50311 24.995C2.79579 24.9915 1.09118 23.4736 1.05381 20.7792C0.982371 15.6525 0.981699 10.5234 1.05398 5.39665C1.09217 2.68205 2.76751 1.18632 5.49336 1.18251C9.24127 1.17723 12.9892 1.18086 16.7371 1.18153C16.9575 1.18168 17.1795 1.1754 17.3978 1.19871C17.8091 1.24287 18.0679 1.47605 18.0674 1.89335C18.0669 2.31123 17.7988 2.54212 17.3959 2.59355C17.1513 2.62483 16.901 2.61488 16.653 2.61488C13.0153 2.61604 9.37754 2.61293 5.73994 2.61705C3.52961 2.61936 2.56556 3.58058 2.56474 5.77534C2.56309 10.6838 2.56227 15.5921 2.56541 20.5007C2.56657 22.5341 3.55342 23.548 5.60151 23.5548C10.3692 23.5707 15.1368 23.5702 19.9043 23.5552C21.8749 23.5491 22.8466 22.5629 22.8536 20.6135C22.8625 18.0908 22.8552 15.568 22.8576 13.0453C22.8579 12.7714 22.8559 12.4952 22.889 12.2243C22.9431 11.7814 23.1213 11.4076 23.6444 11.4122C24.218 11.4172 24.3865 11.8156 24.387 12.303C24.39 15.3193 24.4412 18.337 24.363 21.3513C24.3111 23.3574 22.519 24.9671 20.4673 24.9869C17.9047 25.0119 15.3414 24.993 12.7786 24.993V24.9958Z" fill="white" stroke="white" stroke-width="0.4"/>
<path d="M14.6642 9.35989C14.8199 10.4526 15.3246 10.8894 16.3174 10.7529C16.7419 10.6947 17.0726 10.9348 17.1036 11.4072C17.1377 11.924 16.8053 12.2131 16.3483 12.1863C15.7953 12.1537 15.3951 12.2918 15.0673 12.569C14.8305 12.7689 14.6316 13.0415 14.4402 13.3746C13.9081 14.2997 12.9696 14.7487 11.8782 14.7927C11.4419 14.8102 11.0043 14.7955 10.417 14.7955C10.7587 15.3835 11.2039 15.697 11.5793 16.061C12.3881 16.8448 13.2186 17.606 14.0361 18.3809C14.4248 18.7493 14.7172 19.1912 14.265 19.6581C13.8072 20.1313 13.3592 19.8304 12.9757 19.4669C11.3602 17.9365 9.74626 16.4044 8.1351 14.8694C7.85609 14.6037 7.5455 14.3306 7.70376 13.8836C7.87347 13.4045 8.28891 13.3641 8.72122 13.3653C9.62999 13.3678 10.5389 13.3661 11.4477 13.3618C12.0188 13.3592 12.5326 13.1896 12.9602 12.8038C13.0772 12.698 13.2496 12.5852 13.1776 12.4011C13.1038 12.2124 12.8976 12.2627 12.7418 12.2618C11.5301 12.2559 10.318 12.2708 9.10655 12.2506C8.5115 12.2407 7.72213 12.3141 7.69436 11.4913C7.66458 10.6089 8.46453 10.7418 9.05477 10.7367C10.3216 10.7258 11.5886 10.737 12.8555 10.7286C13.0329 10.7274 13.2815 10.8212 13.3657 10.5865C13.4379 10.3848 13.2543 10.2336 13.1296 10.0929C12.6825 9.58862 12.1043 9.37064 11.4406 9.36548C10.5042 9.3584 9.56781 9.35889 8.63142 9.36023C8.14337 9.3609 7.70129 9.22607 7.68095 8.67651C7.65831 8.06824 8.11871 7.92566 8.64181 7.92603C11.148 7.92737 13.6542 7.92682 16.1605 7.92621C16.6402 7.92621 17.0797 8.02161 17.0997 8.60358C17.1212 9.23123 16.6765 9.36173 16.1542 9.36023C15.6661 9.35873 15.1779 9.35989 14.6642 9.35989Z" fill="white" stroke="white" stroke-width="0.4"/>
<path d="M24.0201 8.01382V7.56558V7.5612V7.55682V7.55245V7.54808V7.54371V7.53935V7.53499V7.53063V7.52627V7.52192V7.51757V7.51322V7.50888V7.50454V7.5002V7.49587V7.49154V7.48721V7.48289V7.47857V7.47425V7.46993V7.46562V7.46131V7.457V7.4527V7.4484V7.4441V7.4398V7.43551V7.43122V7.42694V7.42265V7.41837V7.4141V7.40982V7.40555V7.40128V7.39702V7.39275V7.38849V7.38424V7.37998V7.37573V7.37148V7.36724V7.363V7.35876V7.35452V7.35029V7.34605V7.34183V7.3376V7.33338V7.32916V7.32494V7.32073V7.31651V7.31231V7.3081V7.3039V7.2997V7.2955V7.2913V7.28711V7.28292V7.27874V7.27455V7.27037V7.26619V7.26202V7.25784V7.25367V7.2495V7.24534V7.24118V7.23702V7.23286V7.22871V7.22455V7.2204V7.21626V7.21211V7.20797V7.20384V7.1997V7.19557V7.19143V7.18731V7.18318V7.17906V7.17494V7.17082V7.1667V7.16259V7.15848V7.15437V7.15027V7.14617V7.14207V7.13797V7.13387V7.12978V7.12569V7.1216V7.11752V7.11344V7.10936V7.10528V7.10121V7.09713V7.09306V7.089V7.08493V7.08087V7.07681V7.07275V7.06869V7.06464V7.06059V7.05654V7.0525V7.04845V7.04441V7.04037V7.03634V7.0323V7.02827V7.02424V7.02022V7.01619V7.01217V7.00815V7.00413V7.00012V6.9961V6.99209V6.98808V6.98408V6.98007V6.97607V6.97207V6.96808V6.96408V6.96009V6.9561V6.95211V6.94813V6.94414V6.94016V6.93618V6.93221V6.92823V6.92426V6.92029V6.91632V6.91235V6.90839V6.90443V6.90047V6.89651V6.89256V6.88861V6.88465V6.88071V6.87676V6.87282V6.86887V6.86493V6.86099V6.85706V6.85313V6.84919V6.84526V6.84134V6.83741V6.83349V6.82957V6.82565V6.82173V6.81781V6.8139V6.80999V6.80608V6.80217V6.79827V6.79436V6.79046V6.78656V6.78267V6.77877V6.77488V6.77099V6.7671V6.76321V6.75932V6.75544V6.75156V6.74768V6.7438V6.73993V6.73605V6.73218V6.72831V6.72444V6.72058V6.71671V6.71285V6.70899V6.70513V6.70127V6.69742V6.69356V6.68971V6.68586V6.68201V6.67817V6.67432V6.67048V6.66664V6.6628V6.65896V6.65513V6.65129V6.64746V6.64363V6.6398V6.63598V6.63215V6.62833V6.62451V6.62069V6.61687V6.61305V6.60924V6.60543V6.60162V6.59781V6.594V6.59019V6.58639V6.58259V6.57878V6.57499V6.57119V6.56739V6.5636V6.5598V6.55601V6.55222V6.54843V6.54465V6.54086V6.53708V6.5333V6.52952V6.52574V6.52196V6.51819V6.51441V6.51064V6.50687V6.5031V6.49933V6.49557V6.4918V6.48804V6.48428V6.48052V6.47676V6.473V6.46924V6.46549V6.46174V6.45799V6.45424V6.45049V6.44674V6.443V6.43925V6.43551V6.43177V6.42803V6.42429V6.42055V6.41682V6.41308V6.40935V6.40562V6.40189V6.39816V6.39443V6.3907V6.38698V6.38326V6.37953V6.37581V6.37209V6.36837V6.36466V6.36094V6.35723V6.35351V6.3498V6.34609V6.34238V6.33868V6.33497V6.33126V6.32756V6.32386V6.32015V6.31645V6.31275V6.30906V6.30536V6.30166V6.29797V6.29428V6.29058V6.28689V6.2832V6.27951V6.27583V6.27214V6.26846V6.26477V6.26109V6.25741V6.25373V6.25005V6.24637V6.24269V6.23902V6.23534V6.23167V6.22799V6.22432V6.22065V6.21698V6.21331V6.20964V6.20598V6.20231V6.19865V6.19498V6.19132V6.18766V6.184V6.18034V6.17668V6.17302V6.16937V6.16571V6.16206V6.1584V6.15475V6.1511V6.14745V6.1438V6.14015V6.1365V6.13285V6.12921V6.12556V6.12192V6.11828V6.11463V6.11099V6.10735V6.10371V6.10007V6.09643V6.0928V6.08916V6.08552V6.08189V6.07826V6.07462V6.07099V6.06736V6.06373V6.0601V6.05647V6.05284V6.04921V6.04559V6.04196V6.03833V6.03471V6.03109V6.02746V6.02384V6.02022V6.0166V6.01298V6.00936V6.00574V6.00212V5.9985V5.99489V5.99127V5.98766V5.98404V5.98043V5.97681V5.9732V5.96959V5.96598V5.96237V5.95876V5.95515V5.95154V5.94793V5.94432V5.94072V5.93711V5.9335V5.9299V5.92629V5.92269V5.91909V5.91548V5.91188V5.90828V5.90468V5.90107V5.89747V5.89387V5.89028V5.88668V5.88308V5.87948V5.87588V5.87229V5.86869V5.86509V5.8615V5.8579V5.85431V5.85071V5.84712V5.84353V5.83993V5.83634V5.83275V5.82916V5.82557V5.82197V5.81838V5.81479V5.8112V5.80761V5.80403V5.80044V5.79685V5.79326V5.78967V5.78609V5.7825V5.77891V5.77533V5.77174V5.76815V5.76457V5.76098V5.7574V5.75381V5.75023V5.74664V5.74306V5.73948V5.73589V5.73231V5.72873V5.72514V5.72156V5.71798V5.7144V5.71082V5.70723V5.70365V5.70007V5.69649V5.69291V5.68933V5.68575V5.68217V5.67859V5.67501V5.67143V5.66785V5.66427V5.66069V5.65711V5.65353V5.64995V5.64637V5.64279V5.63921V5.63563V5.63205V5.62848V5.6249V5.62132V5.61774V5.61416V5.61058V5.607V5.60343V5.59985V5.59631V5.59627L24.0194 1.82301V1.82297C24.0194 1.61656 24.0105 1.45559 23.9599 1.34586C23.9377 1.29767 23.9099 1.26576 23.8736 1.24385C23.8359 1.22109 23.7737 1.2 23.6686 1.2C23.5655 1.2 23.5031 1.22142 23.464 1.24534C23.4257 1.26878 23.3957 1.30318 23.3717 1.35385C23.3183 1.46662 23.3063 1.63003 23.305 1.82745V1.82747C23.2974 3.02754 23.2979 4.2274 23.2983 5.42806C23.2985 5.86443 23.2986 6.30091 23.2984 6.73755V6.73755L23.2983 7.37857V7.52158L23.1629 7.56783C23.0757 7.59765 22.9902 7.60855 22.9073 7.59522C22.8232 7.5817 22.7567 7.54566 22.7049 7.50458C22.6559 7.46569 22.6184 7.42077 22.593 7.3895C22.5868 7.38195 22.5814 7.37525 22.5766 7.36926C22.5576 7.34571 22.5473 7.33302 22.5359 7.32199L22.5359 7.32192C22.1624 6.95879 21.7924 6.59032 21.4235 6.22283C21.2248 6.02496 21.0264 5.82738 20.8279 5.63106C20.7106 5.51508 20.6095 5.45678 20.5283 5.44348C20.4631 5.43279 20.3804 5.44582 20.2722 5.55639L20.2721 5.55643C20.1656 5.66519 20.1526 5.74913 20.1642 5.81661C20.1784 5.89898 20.2373 5.99999 20.3528 6.11526C20.8563 6.6179 21.3586 7.11768 21.8611 7.6176C22.3363 8.09036 22.8116 8.56326 23.2882 9.03884C23.4302 9.18045 23.5558 9.23952 23.6601 9.24694L24.0201 8.01382ZM24.0201 8.01382L24.3537 7.71443C24.4366 7.63997 24.5097 7.57559 24.5755 7.51757C24.7016 7.40639 24.8013 7.31853 24.8936 7.22777C25.1195 7.00592 25.3428 6.78421 25.5656 6.56295C25.8814 6.24932 26.1963 5.9366 26.5165 5.62571L26.5166 5.62568C26.6308 5.51478 26.7343 5.45925 26.8189 5.44772C26.8906 5.43795 26.9769 5.45554 27.0811 5.56247L27.0811 5.5625C27.1719 5.65562 27.1933 5.74028 27.1862 5.8131C27.1784 5.89282 27.1329 5.98805 27.0365 6.08514C26.0353 7.09227 25.0287 8.09349 24.0123 9.08445L24.0201 8.01382Z" fill="white" stroke="white" stroke-width="0.4"/>
</svg>
