<svg width="27" height="25" viewBox="0 0 27 25" fill="none" xmlns="http://www.w3.org/2000/svg">
<path d="M12.5483 23.9961C10.1705 23.9961 7.79279 23.9985 5.41504 23.9953C2.76068 23.9919 1.08939 22.5037 1.05277 19.862C0.982714 14.8355 0.982058 9.80668 1.05292 4.78024C1.09038 2.11874 2.73294 0.652265 5.40549 0.648526C9.08008 0.643338 12.7547 0.646894 16.4293 0.64755C16.6454 0.647718 16.863 0.641553 17.0771 0.664426C17.4803 0.707715 17.7341 0.936338 17.7336 1.34546C17.7331 1.75519 17.4703 1.98155 17.0753 2.03198C16.8355 2.06263 16.59 2.0529 16.3469 2.0529C12.7803 2.05403 9.2137 2.05096 5.64723 2.05501C3.48013 2.05728 2.53494 2.99969 2.53415 5.15155C2.53252 9.96396 2.53173 14.7764 2.53479 19.5889C2.53592 21.5825 3.50348 22.5767 5.51152 22.5833C10.1859 22.5989 14.8604 22.5984 19.5346 22.5836C21.4666 22.5776 22.4194 21.6108 22.4262 19.6995C22.4349 17.2261 22.4278 14.7527 22.4301 12.2793C22.4304 12.0108 22.4285 11.74 22.4609 11.4744C22.5139 11.0401 22.6887 10.6737 23.2016 10.6782C23.7639 10.6831 23.9291 11.0737 23.9296 11.5516C23.9326 14.5088 23.9828 17.4675 23.9061 20.4229C23.8552 22.3897 22.0982 23.9679 20.0865 23.9874C17.5741 24.0119 15.0609 23.9934 12.5483 23.9934V23.9961Z" fill="white" stroke="white" stroke-width="0.4"/>
<path d="M14.3969 8.66583C14.5495 9.73718 15.0444 10.1654 16.0177 10.0316C16.434 9.97455 16.7581 10.21 16.7886 10.6731C16.822 11.1798 16.4961 11.4632 16.0481 11.437C15.5058 11.405 15.1135 11.5404 14.7921 11.8122C14.5599 12.0082 14.3649 12.2755 14.1772 12.602C13.6556 13.509 12.7354 13.9493 11.6653 13.9924C11.2376 14.0096 10.8086 13.9952 10.2328 13.9952C10.5678 14.5716 11.0043 14.879 11.3723 15.2359C12.1653 16.0044 12.9796 16.7507 13.7811 17.5104C14.1621 17.8716 14.4488 18.3049 14.0055 18.7626C13.5567 19.2266 13.1174 18.9316 12.7414 18.5752C11.1575 17.0747 9.57509 15.5726 7.99545 14.0677C7.7219 13.8071 7.41738 13.5394 7.57256 13.1011C7.73894 12.6313 8.14624 12.5918 8.5701 12.5929C9.46111 12.5953 10.3523 12.5937 11.2433 12.5895C11.8032 12.5869 12.307 12.4207 12.7261 12.0424C12.8409 11.9387 13.0099 11.8281 12.9394 11.6476C12.867 11.4626 12.6648 11.5119 12.5121 11.511C11.324 11.5052 10.1356 11.5198 8.94791 11.5001C8.36449 11.4903 7.59056 11.5623 7.56333 10.7556C7.53414 9.89038 8.31844 10.0208 8.89714 10.0157C10.1392 10.005 11.3814 10.0161 12.6235 10.0078C12.7975 10.0066 13.0412 10.0986 13.1237 9.86853C13.1946 9.67069 13.0146 9.52246 12.8923 9.38449C12.4539 8.89008 11.887 8.67639 11.2363 8.67133C10.3182 8.66437 9.40015 8.66486 8.48206 8.66614C8.00356 8.66681 7.57013 8.53467 7.55019 7.99585C7.52799 7.39948 7.97937 7.25967 8.49225 7.26001C10.9495 7.26132 13.4067 7.2608 15.8639 7.26019C16.3343 7.26019 16.7651 7.35373 16.7847 7.92432C16.8058 8.53967 16.3698 8.66763 15.8577 8.66614C15.3792 8.6647 14.9005 8.66583 14.3969 8.66583Z" fill="white" stroke="white" stroke-width="0.4"/>
<path d="M23.5932 1.8454V1.39719L23.9268 1.69655C24.008 1.76937 24.0794 1.83237 24.1439 1.88918C24.2678 1.99837 24.3657 2.08468 24.4563 2.17379C24.4564 2.17383 24.4564 2.17386 24.4564 2.17389L24.3162 2.3165C24.5362 2.53246 24.7549 2.74965 24.9736 2.96684C25.284 3.27507 25.5944 3.5833 25.9083 3.88803C26.162 4.13452 26.4618 4.23041 26.7387 3.9462L23.5932 1.8454ZM23.5932 1.8454V1.84969V1.85399V1.85827V1.86256V1.86684V1.87112V1.8754V1.87967V1.88394V1.88821V1.89247V1.89673V1.90099V1.90525V1.9095V1.91375V1.91799V1.92224V1.92648V1.93072V1.93495V1.93918V1.94341V1.94764V1.95186V1.95608V1.96029V1.96451V1.96872V1.97293V1.97713V1.98133V1.98553V1.98973V1.99392V1.99812V2.0023V2.00649V2.01067V2.01485V2.01903V2.0232V2.02737V2.03154V2.0357V2.03987V2.04403V2.04818V2.05234V2.05649V2.06064V2.06478V2.06892V2.07307V2.0772V2.08134V2.08547V2.0896V2.09372V2.09785V2.10197V2.10609V2.1102V2.11432V2.11843V2.12253V2.12664V2.13074V2.13484V2.13894V2.14303V2.14712V2.15121V2.1553V2.15938V2.16346V2.16754V2.17162V2.17569V2.17976V2.18383V2.18789V2.19196V2.19602V2.20008V2.20413V2.20818V2.21223V2.21628V2.22032V2.22437V2.22841V2.23244V2.23648V2.24051V2.24454V2.24857V2.25259V2.25662V2.26064V2.26465V2.26867V2.27268V2.27669V2.2807V2.2847V2.2887V2.2927V2.2967V2.3007V2.30469V2.30868V2.31267V2.31665V2.32064V2.32462V2.3286V2.33257V2.33655V2.34052V2.34449V2.34845V2.35242V2.35638V2.36034V2.3643V2.36825V2.37221V2.37616V2.3801V2.38405V2.38799V2.39194V2.39587V2.39981V2.40375V2.40768V2.41161V2.41553V2.41946V2.42338V2.4273V2.43122V2.43514V2.43905V2.44297V2.44688V2.45078V2.45469V2.45859V2.46249V2.46639V2.47029V2.47418V2.47808V2.48197V2.48586V2.48974V2.49363V2.49751V2.50139V2.50526V2.50914V2.51301V2.51689V2.52075V2.52462V2.52849V2.53235V2.53621V2.54007V2.54393V2.54778V2.55163V2.55549V2.55933V2.56318V2.56703V2.57087V2.57471V2.57855V2.58238V2.58622V2.59005V2.59388V2.59771V2.60154V2.60536V2.60919V2.61301V2.61683V2.62064V2.62446V2.62827V2.63208V2.63589V2.6397V2.64351V2.64731V2.65111V2.65491V2.65871V2.66251V2.6663V2.67009V2.67388V2.67767V2.68146V2.68525V2.68903V2.69281V2.69659V2.70037V2.70414V2.70792V2.71169V2.71546V2.71923V2.723V2.72676V2.73053V2.73429V2.73805V2.74181V2.74557V2.74932V2.75308V2.75683V2.76058V2.76433V2.76807V2.77182V2.77556V2.7793V2.78304V2.78678V2.79052V2.79425V2.79798V2.80172V2.80545V2.80917V2.8129V2.81663V2.82035V2.82407V2.82779V2.83151V2.83523V2.83894V2.84266V2.84637V2.85008V2.85379V2.8575V2.8612V2.86491V2.86861V2.87231V2.87601V2.87971V2.88341V2.8871V2.8908V2.89449V2.89818V2.90187V2.90556V2.90925V2.91293V2.91662V2.9203V2.92398V2.92766V2.93134V2.93501V2.93869V2.94236V2.94603V2.9497V2.95337V2.95704V2.96071V2.96437V2.96804V2.9717V2.97536V2.97902V2.98268V2.98634V2.98999V2.99365V2.9973V3.00095V3.0046V3.00825V3.0119V3.01555V3.01919V3.02284V3.02648V3.03012V3.03376V3.0374V3.04104V3.04468V3.04831V3.05195V3.05558V3.05921V3.06284V3.06647V3.0701V3.07373V3.07735V3.08098V3.0846V3.08822V3.09184V3.09546V3.09908V3.1027V3.10632V3.10993V3.11354V3.11716V3.12077V3.12438V3.12799V3.1316V3.13521V3.13881V3.14242V3.14602V3.14963V3.15323V3.15683V3.16043V3.16403V3.16763V3.17122V3.17482V3.17841V3.18201V3.1856V3.18919V3.19278V3.19637V3.19996V3.20355V3.20714V3.21072V3.21431V3.21789V3.22147V3.22506V3.22864V3.23222V3.2358V3.23937V3.24295V3.24653V3.2501V3.25368V3.25725V3.26083V3.2644V3.26797V3.27154V3.27511V3.27868V3.28225V3.28581V3.28938V3.29294V3.29651V3.30007V3.30364V3.3072V3.31076V3.31432V3.31788V3.32144V3.325V3.32855V3.33211V3.33567V3.33922V3.34278V3.34633V3.34988V3.35343V3.35699V3.36054V3.36409V3.36764V3.37118V3.37473V3.37828V3.38183V3.38537V3.38892V3.39246V3.396V3.39955V3.40309V3.40663V3.41017V3.41371V3.41725V3.42079V3.42433V3.42787V3.43141V3.43495V3.43848V3.44202V3.44555V3.44909V3.45262V3.45616V3.45969V3.46322V3.46675V3.47029V3.47382V3.47735V3.48088V3.48441V3.48794V3.49146V3.49499V3.49852V3.50205V3.50557V3.5091V3.51262V3.51615V3.51967V3.5232V3.52672V3.53025V3.53377V3.53729V3.54081V3.54434V3.54786V3.55138V3.5549V3.55842V3.56194V3.56546V3.56898V3.5725V3.57601V3.57953V3.58305V3.58657V3.59009V3.5936V3.59712V3.60063V3.60415V3.60767V3.61118V3.6147V3.61821V3.62173V3.62524V3.62875V3.63227V3.63578V3.63929V3.64281V3.64632V3.64983V3.65334V3.65686V3.66037V3.66388V3.66739V3.6709V3.67441V3.67793V3.68144V3.68495V3.68846V3.69197V3.69548V3.69899V3.7025V3.70601V3.70952V3.71303V3.71654V3.72005V3.72355V3.72706V3.73057V3.73408V3.73759V3.7411V3.74461V3.74812V3.75163V3.75513V3.75864V3.76215V3.76566V3.76917V3.77268V3.77615M23.5932 1.8454V3.77615M23.5932 3.77615V3.77619L23.5927 7.47567V7.47571C23.5927 7.67821 23.5838 7.83516 23.5346 7.94185C23.5131 7.98851 23.4864 8.01915 23.4515 8.04016C23.4153 8.06203 23.3551 8.08259 23.2526 8.08259C23.1521 8.08259 23.0916 8.06171 23.054 8.03871C23.0172 8.0162 22.9883 7.98311 22.965 7.93399C22.913 7.8243 22.9012 7.66493 22.9 7.4713L22.9 7.47127C22.8926 6.29403 22.893 5.117 22.8934 3.93916C22.8936 3.51198 22.8938 3.08469 22.8935 2.65725V2.65724L22.8934 2.02875V1.88573L22.7581 1.83949C22.6721 1.8101 22.5876 1.79928 22.5055 1.81247C22.4223 1.82585 22.3565 1.86154 22.3053 1.90214C22.2569 1.94056 22.2199 1.9849 22.195 2.01558C22.1889 2.02302 22.1836 2.0296 22.1788 2.03548C22.1602 2.05855 22.1503 2.07077 22.1394 2.08142L22.1393 2.08149C21.773 2.43767 21.4101 2.7991 21.0482 3.15954C20.8535 3.3534 20.6591 3.54699 20.4647 3.73932L23.5932 3.77615ZM21.4893 1.79105C21.9532 1.3295 22.4173 0.867821 22.8823 0.403746L20.4646 3.73933C20.3499 3.85279 20.2515 3.90929 20.1731 3.92214C20.1106 3.93237 20.0307 3.92023 19.9254 3.81256L19.9253 3.81252C19.8216 3.70661 19.8094 3.62553 19.8206 3.56082C19.8343 3.48122 19.8914 3.38289 20.0044 3.27011C20.4999 2.77541 20.9946 2.2833 21.4893 1.79105ZM23.5868 0.359022C24.5833 1.3306 25.5703 2.31224 26.5518 3.29967L22.8824 0.403718C23.0212 0.265251 23.1435 0.207992 23.2445 0.20081C23.3395 0.194055 23.4534 0.228985 23.5868 0.359022Z" fill="white" stroke="white" stroke-width="0.4"/>
</svg>
